LibreDotMatrixVideo-Regular.ufo
<glyph name="parenleft" format="2">
  <advance width="401"/>
  <unicode hex="0028"/>
  <outline>
    <contour>
      <point x="50" y="200" type="line"/>
      <point x="50" y="500" type="line"/>
      <point x="100" y="500" type="line"/>
      <point x="100" y="550" type="line"/>
      <point x="150" y="550" type="line"/>
      <point x="150" y="600" type="line"/>
      <point x="200" y="600" type="line"/>
      <point x="200" y="650" type="line"/>
      <point x="250" y="650" type="line"/>
      <point x="250" y="700" type="line"/>
      <point x="350" y="700" type="line"/>
      <point x="350" y="600" type="line"/>
      <point x="300" y="600" type="line"/>
      <point x="300" y="550" type="line"/>
      <point x="250" y="550" type="line"/>
      <point x="250" y="500" type="line"/>
      <point x="200" y="500" type="line"/>
      <point x="200" y="450" type="line"/>
      <point x="150" y="450" type="line"/>
      <point x="150" y="250" type="line"/>
      <point x="200" y="250" type="line"/>
      <point x="200" y="200" type="line"/>
      <point x="250" y="200" type="line"/>
      <point x="250" y="150" type="line"/>
      <point x="300" y="150" type="line"/>
      <point x="300" y="100" type="line"/>
      <point x="350" y="100" type="line"/>
      <point x="350" y="0" type="line"/>
      <point x="250" y="0" type="line"/>
      <point x="250" y="50" type="line"/>
      <point x="200" y="50" type="line"/>
      <point x="200" y="100" type="line"/>
      <point x="150" y="100" type="line"/>
      <point x="150" y="150" type="line"/>
      <point x="100" y="150" type="line"/>
      <point x="100" y="200" type="line"/>
    </contour>
  </outline>
</glyph>
<glyph name="asterisk" format="2">
  <advance width="600"/>
  <unicode hex="002A"/>
  <outline>
    <contour>
      <point x="50" y="200" type="line"/>
      <point x="50" y="300" type="line"/>
      <point x="100" y="300" type="line"/>
      <point x="100" y="400" type="line"/>
      <point x="50" y="400" type="line"/>
      <point x="50" y="500" type="line"/>
      <point x="150" y="500" type="line"/>
      <point x="150" y="450" type="line"/>
      <point x="200" y="450" type="line"/>
      <point x="200" y="400" type="line"/>
      <point x="250" y="400" type="line"/>
      <point x="250" y="600" type="line"/>
      <point x="350" y="600" type="line"/>
      <point x="350" y="400" type="line"/>
      <point x="400" y="400" type="line"/>
      <point x="400" y="450" type="line"/>
      <point x="450" y="450" type="line"/>
      <point x="450" y="500" type="line"/>
      <point x="550" y="500" type="line"/>
      <point x="550" y="400" type="line"/>
      <point x="500" y="400" type="line"/>
      <point x="500" y="300" type="line"/>
      <point x="550" y="300" type="line"/>
      <point x="550" y="200" type="line"/>
      <point x="450" y="200" type="line"/>
      <point x="450" y="250" type="line"/>
      <point x="400" y="250" type="line"/>
      <point x="400" y="300" type="line"/>
      <point x="350" y="300" type="line"/>
      <point x="350" y="100" type="line"/>
      <point x="250" y="100" type="line"/>
      <point x="250" y="300" type="line"/>
      <point x="200" y="300" type="line"/>
      <point x="200" y="250" type="line"/>
      <point x="150" y="250" type="line"/>
      <point x="150" y="200" type="line"/>
    </contour>
  </outline>
</glyph>
<glyph name="three" format="2">
  <advance width="601"/>
  <unicode hex="0033"/>
  <outline>
    <contour>
      <point x="50" y="100" type="line"/>
      <point x="50" y="200" type="line"/>
      <point x="150" y="200" type="line"/>
      <point x="150" y="150" type="line"/>
      <point x="200" y="150" type="line"/>
      <point x="200" y="100" type="line"/>
      <point x="400" y="100" type="line"/>
      <point x="400" y="150" type="line"/>
      <point x="450" y="150" type="line"/>
      <point x="450" y="250" type="line"/>
      <point x="400" y="250" type="line"/>
      <point x="400" y="300" type="line"/>
      <point x="250" y="300" type="line"/>
      <point x="250" y="400" type="line"/>
      <point x="400" y="400" type="line"/>
      <point x="400" y="450" type="line"/>
      <point x="450" y="450" type="line"/>
      <point x="450" y="550" type="line"/>
      <point x="400" y="550" type="line"/>
      <point x="400" y="600" type="line"/>
      <point x="200" y="600" type="line"/>
      <point x="200" y="550" type="line"/>
      <point x="150" y="550" type="line"/>
      <point x="150" y="500" type="line"/>
      <point x="50" y="500" type="line"/>
      <point x="50" y="600" type="line"/>
      <point x="100" y="600" type="line"/>
      <point x="100" y="650" type="line"/>
      <point x="150" y="650" type="line"/>
      <point x="150" y="700" type="line"/>
      <point x="450" y="700" type="line"/>
      <point x="450" y="650" type="line"/>
      <point x="500" y="650" type="line"/>
      <point x="500" y="600" type="line"/>
      <point x="550" y="600" type="line"/>
      <point x="550" y="400" type="line"/>
      <point x="500" y="400" type="line"/>
      <point x="500" y="300" type="line"/>
      <point x="550" y="300" type="line"/>
      <point x="550" y="100" type="line"/>
      <point x="500" y="100" type="line"/>
      <point x="500" y="50" type="line"/>
      <point x="450" y="50" type="line"/>
      <point x="450" y="0" type="line"/>
      <point x="150" y="0" type="line"/>
      <point x="150" y="50" type="line"/>
      <point x="100" y="50" type="line"/>
      <point x="100" y="100" type="line"/>
    </contour>
  </outline>
</glyph>
<glyph name="seven" format="2">
  <advance width="600"/>
  <unicode hex="0037"/>
  <outline>
    <contour>
      <point x="50" y="600" type="line"/>
      <point x="50" y="700" type="line"/>
      <point x="550" y="700" type="line"/>
      <point x="550" y="500" type="line"/>
      <point x="500" y="500" type="line"/>
      <point x="500" y="450" type="line"/>
      <point x="450" y="450" type="line"/>
      <point x="450" y="400" type="line"/>
      <point x="400" y="400" type="line"/>
      <point x="400" y="350" type="line"/>
      <point x="350" y="350" type="line"/>
      <point x="350" y="300" type="line"/>
      <point x="300" y="300" type="line"/>
      <point x="300" y="250" type="line"/>
      <point x="250" y="250" type="line"/>
      <point x="250" y="0" type="line"/>
      <point x="150" y="0" type="line"/>
      <point x="150" y="300" type="line"/>
      <point x="200" y="300" type="line"/>
      <point x="200" y="350" type="line"/>
      <point x="250" y="350" type="line"/>
      <point x="250" y="400" type="line"/>
      <point x="300" y="400" type="line"/>
      <point x="300" y="450" type="line"/>
      <point x="350" y="450" type="line"/>
      <point x="350" y="500" type="line"/>
      <point x="400" y="500" type="line"/>
      <point x="400" y="550" type="line"/>
      <point x="450" y="550" type="line"/>
      <point x="450" y="600" type="line"/>
    </contour>
  </outline>
</glyph>
<glyph name="less" format="2">
  <advance width="400"/>
  <unicode hex="003C"/>
  <outline>
    <contour>
      <point x="50" y="300" type="line"/>
      <point x="50" y="400" type="line"/>
      <point x="100" y="400" type="line"/>
      <point x="100" y="450" type="line"/>
      <point x="150" y="450" type="line"/>
      <point x="150" y="500" type="line"/>
      <point x="200" y="500" type="line"/>
      <point x="200" y="550" type="line"/>
      <point x="250" y="550" type="line"/>
      <point x="250" y="600" type="line"/>
      <point x="350" y="600" type="line"/>
      <point x="350" y="500" type="line"/>
      <point x="300" y="500" type="line"/>
      <point x="300" y="450" type="line"/>
      <point x="250" y="450" type="line"/>
      <point x="250" y="400" type="line"/>
      <point x="200" y="400" type="line"/>
      <point x="200" y="300" type="line"/>
      <point x="250" y="300" type="line"/>
      <point x="250" y="250" type="line"/>
      <point x="300" y="250" type="line"/>
      <point x="300" y="200" type="line"/>
      <point x="350" y="200" type="line"/>
      <point x="350" y="100" type="line"/>
      <point x="250" y="100" type="line"/>
      <point x="250" y="150" type="line"/>
      <point x="200" y="150" type="line"/>
      <point x="200" y="200" type="line"/>
      <point x="150" y="200" type="line"/>
      <point x="150" y="250" type="line"/>
      <point x="100" y="250" type="line"/>
      <point x="100" y="300" type="line"/>
    </contour>
  </outline>
</glyph>
<glyph name="equal" format="2">
  <advance width="601"/>
  <unicode hex="003D"/>
  <outline>
    <contour>
      <point x="50" y="200" type="line"/>
      <point x="50" y="300" type="line"/>
      <point x="550" y="300" type="line"/>
      <point x="550" y="200" type="line"/>
    </contour>
    <contour>
      <point x="50" y="400" type="line"/>
      <point x="50" y="500" type="line"/>
      <point x="550" y="500" type="line"/>
      <point x="550" y="400" type="line"/>
    </contour>
  </outline>
</glyph>
<glyph name="question" format="2">
  <advance width="601"/>
  <unicode hex="003F"/>
  <outline>
    <contour>
      <point x="250" y="0" type="line"/>
      <point x="250" y="100" type="line"/>
      <point x="350" y="100" type="line"/>
      <point x="350" y="0" type="line"/>
    </contour>
    <contour>
      <point x="50" y="500" type="line"/>
      <point x="50" y="600" type="line"/>
      <point x="100" y="600" type="line"/>
      <point x="100" y="650" type="line"/>
      <point x="150" y="650" type="line"/>
      <point x="150" y="700" type="line"/>
      <point x="450" y="700" type="line"/>
      <point x="450" y="650" type="line"/>
      <point x="500" y="650" type="line"/>
      <point x="500" y="600" type="line"/>
      <point x="550" y="600" type="line"/>
      <point x="550" y="400" type="line"/>
      <point x="500" y="400" type="line"/>
      <point x="500" y="350" type="line"/>
      <point x="450" y="350" type="line"/>
      <point x="450" y="300" type="line"/>
      <point x="350" y="300" type="line"/>
      <point x="350" y="200" type="line"/>
      <point x="250" y="200" type="line"/>
      <point x="250" y="400" type="line"/>
      <point x="400" y="400" type="line"/>
      <point x="400" y="450" type="line"/>
      <point x="450" y="450" type="line"/>
      <point x="450" y="550" type="line"/>
      <point x="400" y="550" type="line"/>
      <point x="400" y="600" type="line"/>
      <point x="200" y="600" type="line"/>
      <point x="200" y="550" type="line"/>
      <point x="150" y="550" type="line"/>
      <point x="150" y="500" type="line"/>
    </contour>
  </outline>
</glyph>
<glyph name="A" format="2">
  <advance width="601"/>
  <unicode hex="0041"/>
  <outline>
    <contour>
      <point x="450" y="0" type="line"/>
      <point x="450" y="200" type="line"/>
      <point x="150" y="200" type="line"/>
      <point x="150" y="0" type="line"/>
      <point x="50" y="0" type="line"/>
      <point x="50" y="500" type="line"/>
      <point x="100" y="500" type="line"/>
      <point x="100" y="550" type="line"/>
      <point x="150" y="550" type="line"/>
      <point x="150" y="600" type="line"/>
      <point x="200" y="600" type="line"/>
      <point x="200" y="650" type="line"/>
      <point x="250" y="650" type="line"/>
      <point x="250" y="700" type="line"/>
      <point x="350" y="700" type="line"/>
      <point x="350" y="650" type="line"/>
      <point x="400" y="650" type="line"/>
      <point x="400" y="600" type="line"/>
      <point x="450" y="600" type="line"/>
      <point x="450" y="550" type="line"/>
      <point x="500" y="550" type="line"/>
      <point x="500" y="500" type="line"/>
      <point x="550" y="500" type="line"/>
      <point x="550" y="0" type="line"/>
    </contour>
    <contour>
      <point x="150" y="300" type="line"/>
      <point x="450" y="300" type="line"/>
      <point x="450" y="450" type="line"/>
      <point x="400" y="450" type="line"/>
      <point x="400" y="500" type="line"/>
      <point x="350" y="500" type="line"/>
      <point x="350" y="550" type="line"/>
      <point x="250" y="550" type="line"/>
      <point x="250" y="500" type="line"/>
      <point x="200" y="500" type="line"/>
      <point x="200" y="450" type="line"/>
      <point x="150" y="450" type="line"/>
    </contour>
  </outline>
</glyph>
<glyph name="C" format="2">
  <advance width="600"/>
  <unicode hex="0043"/>
  <anchor x="300" y="0" name="marks_below"/>
  <anchor x="300" y="800" name="marks_above"/>
  <outline>
    <contour>
      <point x="450" y="0" type="line"/>
      <point x="150" y="0" type="line"/>
      <point x="150" y="50" type="line"/>
      <point x="100" y="50" type="line"/>
      <point x="100" y="100" type="line"/>
      <point x="50" y="100" type="line"/>
      <point x="50" y="600" type="line"/>
      <point x="100" y="600" type="line"/>
      <point x="100" y="650" type="line"/>
      <point x="150" y="650" type="line"/>
      <point x="150" y="700" type="line"/>
      <point x="450" y="700" type="line"/>
      <point x="450" y="650" type="line"/>
      <point x="500" y="650" type="line"/>
      <point x="500" y="600" type="line"/>
      <point x="550" y="600" type="line"/>
      <point x="550" y="500" type="line"/>
      <point x="450" y="500" type="line"/>
      <point x="450" y="550" type="line"/>
      <point x="400" y="550" type="line"/>
      <point x="400" y="600" type="line"/>
      <point x="200" y="600" type="line"/>
      <point x="200" y="550" type="line"/>
      <point x="150" y="550" type="line"/>
      <point x="150" y="150" type="line"/>
      <point x="200" y="150" type="line"/>
      <point x="200" y="100" type="line"/>
      <point x="400" y="100" type="line"/>
      <point x="400" y="150" type="line"/>
      <point x="450" y="150" type="line"/>
      <point x="450" y="200" type="line"/>
      <point x="550" y="200" type="line"/>
      <point x="550" y="100" type="line"/>
      <point x="500" y="100" type="line"/>
      <point x="500" y="50" type="line"/>
      <point x="450" y="50" type="line"/>
    </contour>
  </outline>
</glyph>
<glyph name="D" format="2">
  <advance width="600"/>
  <unicode hex="0044"/>
  <outline>
    <contour>
      <point x="350" y="0" type="line"/>
      <point x="50" y="0" type="line"/>
      <point x="50" y="700" type="line"/>
      <point x="350" y="700" type="line"/>
      <point x="350" y="650" type="line"/>
      <point x="400" y="650" type="line"/>
      <point x="400" y="600" type="line"/>
      <point x="450" y="600" type="line"/>
      <point x="450" y="550" type="line"/>
      <point x="500" y="550" type="line"/>
      <point x="500" y="500" type="line"/>
      <point x="550" y="500" type="line"/>
      <point x="550" y="200" type="line"/>
      <point x="500" y="200" type="line"/>
      <point x="500" y="150" type="line"/>
      <point x="450" y="150" type="line"/>
      <point x="450" y="100" type="line"/>
      <point x="400" y="100" type="line"/>
      <point x="400" y="50" type="line"/>
      <point x="350" y="50" type="line"/>
    </contour>
    <contour>
      <point x="150" y="100" type="line"/>
      <point x="300" y="100" type="line"/>
      <point x="300" y="150" type="line"/>
      <point x="350" y="150" type="line"/>
      <point x="350" y="200" type="line"/>
      <point x="400" y="200" type="line"/>
      <point x="400" y="250" type="line"/>
      <point x="450" y="250" type="line"/>
      <point x="450" y="450" type="line"/>
      <point x="400" y="450" type="line"/>
      <point x="400" y="500" type="line"/>
      <point x="350" y="500" type="line"/>
      <point x="350" y="550" type="line"/>
      <point x="300" y="550" type="line"/>
      <point x="300" y="600" type="line"/>
      <point x="150" y="600" type="line"/>
    </contour>
  </outline>
</glyph>
<glyph name="E" format="2">
  <advance width="600"/>
  <unicode hex="0045"/>
  <anchor x="450" y="0" name="ogonek"/>
  <anchor x="300" y="800" name="above"/>
  <outline>
    <contour>
      <point x="550" y="0" type="line"/>
      <point x="50" y="0" type="line"/>
      <point x="50" y="700" type="line"/>
      <point x="550" y="700" type="line"/>
      <point x="550" y="600" type="line"/>
      <point x="150" y="600" type="line"/>
      <point x="150" y="400" type="line"/>
      <point x="450" y="400" type="line"/>
      <point x="450" y="300" type="line"/>
      <point x="150" y="300" type="line"/>
      <point x="150" y="100" type="line"/>
      <point x="550" y="100" type="line"/>
    </contour>
  </outline>
</glyph>
<glyph name="K" format="2">
  <advance width="600"/>
  <unicode hex="004B"/>
  <anchor x="300" y="0" name="below"/>
  <outline>
    <contour>
      <point x="50" y="0" type="line"/>
      <point x="50" y="700" type="line"/>
      <point x="150" y="700" type="line"/>
      <point x="150" y="400" type="line"/>
      <point x="200" y="400" type="line"/>
      <point x="200" y="450" type="line"/>
      <point x="250" y="450" type="line"/>
      <point x="250" y="500" type="line"/>
      <point x="300" y="500" type="line"/>
      <point x="300" y="550" type="line"/>
      <point x="350" y="550" type="line"/>
      <point x="350" y="600" type="line"/>
      <point x="400" y="600" type="line"/>
      <point x="400" y="650" type="line"/>
      <point x="450" y="650" type="line"/>
      <point x="450" y="700" type="line"/>
      <point x="550" y="700" type="line"/>
      <point x="550" y="600" type="line"/>
      <point x="500" y="600" type="line"/>
      <point x="500" y="550" type="line"/>
      <point x="450" y="550" type="line"/>
      <point x="450" y="500" type="line"/>
      <point x="400" y="500" type="line"/>
      <point x="400" y="450" type="line"/>
      <point x="350" y="450" type="line"/>
      <point x="350" y="400" type="line"/>
      <point x="300" y="400" type="line"/>
      <point x="300" y="300" type="line"/>
      <point x="350" y="300" type="line"/>
      <point x="350" y="250" type="line"/>
      <point x="400" y="250" type="line"/>
      <point x="400" y="200" type="line"/>
      <point x="450" y="200" type="line"/>
      <point x="450" y="150" type="line"/>
      <point x="500" y="150" type="line"/>
      <point x="500" y="100" type="line"/>
      <point x="550" y="100" type="line"/>
      <point x="550" y="0" type="line"/>
      <point x="450" y="0" type="line"/>
      <point x="450" y="50" type="line"/>
      <point x="400" y="50" type="line"/>
      <point x="400" y="100" type="line"/>
      <point x="350" y="100" type="line"/>
      <point x="350" y="150" type="line"/>
      <point x="300" y="150" type="line"/>
      <point x="300" y="200" type="line"/>
      <point x="250" y="200" type="line"/>
      <point x="250" y="250" type="line"/>
      <point x="200" y="250" type="line"/>
      <point x="200" y="300" type="line"/>
      <point x="150" y="300" type="line"/>
      <point x="150" y="0" type="line"/>
    </contour>
  </outline>
</glyph>
<glyph name="M" format="2">
  <advance width="601"/>
  <unicode hex="004D"/>
  <outline>
    <contour>
      <point x="450" y="0" type="line"/>
      <point x="450" y="500" type="line"/>
      <point x="400" y="500" type="line"/>
      <point x="400" y="450" type="line"/>
      <point x="350" y="450" type="line"/>
      <point x="350" y="300" type="line"/>
      <point x="250" y="300" type="line"/>
      <point x="250" y="450" type="line"/>
      <point x="200" y="450" type="line"/>
      <point x="200" y="500" type="line"/>
      <point x="150" y="500" type="line"/>
      <point x="150" y="0" type="line"/>
      <point x="50" y="0" type="line"/>
      <point x="50" y="700" type="line"/>
      <point x="150" y="700" type="line"/>
      <point x="150" y="600" type="line"/>
      <point x="250" y="600" type="line"/>
      <point x="250" y="550" type="line"/>
      <point x="350" y="550" type="line"/>
      <point x="350" y="600" type="line"/>
      <point x="450" y="600" type="line"/>
      <point x="450" y="700" type="line"/>
      <point x="550" y="700" type="line"/>
      <point x="550" y="0" type="line"/>
    </contour>
  </outline>
</glyph>
<glyph name="N" format="2">
  <advance width="600"/>
  <unicode hex="004E"/>
  <anchor x="300" y="0" name="marks_below"/>
  <anchor x="300" y="800" name="marks_above"/>
  <outline>
    <contour>
      <point x="450" y="0" type="line"/>
      <point x="450" y="150" type="line"/>
      <point x="400" y="150" type="line"/>
      <point x="400" y="200" type="line"/>
      <point x="350" y="200" type="line"/>
      <point x="350" y="250" type="line"/>
      <point x="300" y="250" type="line"/>
      <point x="300" y="300" type="line"/>
      <point x="250" y="300" type="line"/>
      <point x="250" y="350" type="line"/>
      <point x="200" y="350" type="line"/>
      <point x="200" y="400" type="line"/>
      <point x="150" y="400" type="line"/>
      <point x="150" y="0" type="line"/>
      <point x="50" y="0" type="line"/>
      <point x="50" y="700" type="line"/>
      <point x="150" y="700" type="line"/>
      <point x="150" y="550" type="line"/>
      <point x="200" y="550" type="line"/>
      <point x="200" y="500" type="line"/>
      <point x="250" y="500" type="line"/>
      <point x="250" y="450" type="line"/>
      <point x="300" y="450" type="line"/>
      <point x="300" y="400" type="line"/>
      <point x="350" y="400" type="line"/>
      <point x="350" y="350" type="line"/>
      <point x="400" y="350" type="line"/>
      <point x="400" y="300" type="line"/>
      <point x="450" y="300" type="line"/>
      <point x="450" y="700" type="line"/>
      <point x="550" y="700" type="line"/>
      <point x="550" y="0" type="line"/>
    </contour>
  </outline>
</glyph>
<glyph name="U" format="2">
  <advance width="600"/>
  <unicode hex="0055"/>
  <anchor x="350" y="0" name="ogonek"/>
  <anchor x="300" y="800" name="above"/>
  <outline>
    <contour>
      <point x="450" y="0" type="line"/>
      <point x="150" y="0" type="line"/>
      <point x="150" y="50" type="line"/>
      <point x="100" y="50" type="line"/>
      <point x="100" y="100" type="line"/>
      <point x="50" y="100" type="line"/>
      <point x="50" y="700" type="line"/>
      <point x="150" y="700" type="line"/>
      <point x="150" y="150" type="line"/>
      <point x="200" y="150" type="line"/>
      <point x="200" y="100" type="line"/>
      <point x="400" y="100" type="line"/>
      <point x="400" y="150" type="line"/>
      <point x="450" y="150" type="line"/>
      <point x="450" y="700" type="line"/>
      <point x="550" y="700" type="line"/>
      <point x="550" y="100" type="line"/>
      <point x="500" y="100" type="line"/>
      <point x="500" y="50" type="line"/>
      <point x="450" y="50" type="line"/>
    </contour>
  </outline>
</glyph>
<glyph name="W" format="2">
  <advance width="600"/>
  <unicode hex="0057"/>
  <anchor x="300" y="0" name="marks_below"/>
  <anchor x="300" y="800" name="marks_above"/>
  <outline>
    <contour>
      <point x="450" y="150" type="line"/>
      <point x="450" y="700" type="line"/>
      <point x="550" y="700" type="line"/>
      <point x="550" y="100" type="line"/>
      <point x="500" y="100" type="line"/>
      <point x="500" y="50" type="line"/>
      <point x="450" y="50" type="line"/>
      <point x="450" y="0" type="line"/>
      <point x="350" y="0" type="line"/>
      <point x="350" y="50" type="line"/>
      <point x="250" y="50" type="line"/>
      <point x="250" y="0" type="line"/>
      <point x="150" y="0" type="line"/>
      <point x="150" y="50" type="line"/>
      <point x="100" y="50" type="line"/>
      <point x="100" y="100" type="line"/>
      <point x="50" y="100" type="line"/>
      <point x="50" y="700" type="line"/>
      <point x="150" y="700" type="line"/>
      <point x="150" y="150" type="line"/>
      <point x="250" y="150" type="line"/>
      <point x="250" y="400" type="line"/>
      <point x="350" y="400" type="line"/>
      <point x="350" y="150" type="line"/>
    </contour>
  </outline>
</glyph>
<glyph name="Z" format="2">
  <advance width="600"/>
  <unicode hex="005A"/>
  <anchor x="300" y="0" name="marks_below"/>
  <anchor x="300" y="800" name="marks_above"/>
  <outline>
    <contour>
      <point x="50" y="600" type="line"/>
      <point x="50" y="700" type="line"/>
      <point x="550" y="700" type="line"/>
      <point x="550" y="500" type="line"/>
      <point x="500" y="500" type="line"/>
      <point x="500" y="450" type="line"/>
      <point x="450" y="450" type="line"/>
      <point x="450" y="400" type="line"/>
      <point x="400" y="400" type="line"/>
      <point x="400" y="350" type="line"/>
      <point x="350" y="350" type="line"/>
      <point x="350" y="300" type="line"/>
      <point x="300" y="300" type="line"/>
      <point x="300" y="250" type="line"/>
      <point x="250" y="250" type="line"/>
      <point x="250" y="200" type="line"/>
      <point x="200" y="200" type="line"/>
      <point x="200" y="150" type="line"/>
      <point x="150" y="150" type="line"/>
      <point x="150" y="100" type="line"/>
      <point x="550" y="100" type="line"/>
      <point x="550" y="0" type="line"/>
      <point x="50" y="0" type="line"/>
      <point x="50" y="200" type="line"/>
      <point x="100" y="200" type="line"/>
      <point x="100" y="250" type="line"/>
      <point x="150" y="250" type="line"/>
      <point x="150" y="300" type="line"/>
      <point x="200" y="300" type="line"/>
      <point x="200" y="350" type="line"/>
      <point x="250" y="350" type="line"/>
      <point x="250" y="400" type="line"/>
      <point x="300" y="400" type="line"/>
      <point x="300" y="450" type="line"/>
      <point x="350" y="450" type="line"/>
      <point x="350" y="500" type="line"/>
      <point x="400" y="500" type="line"/>
      <point x="400" y="550" type="line"/>
      <point x="450" y="550" type="line"/>
      <point x="450" y="600" type="line"/>
    </contour>
  </outline>
</glyph>
<glyph name="a" format="2">
  <advance width="601"/>
  <unicode hex="0061"/>
  <outline>
    <contour>
      <point x="50" y="100" type="line"/>
      <point x="50" y="200" type="line"/>
      <point x="100" y="200" type="line"/>
      <point x="100" y="250" type="line"/>
      <point x="150" y="250" type="line"/>
      <point x="150" y="300" type="line"/>
      <point x="450" y="300" type="line"/>
      <point x="450" y="350" type="line"/>
      <point x="400" y="350" type="line"/>
      <point x="400" y="400" type="line"/>
      <point x="150" y="400" type="line"/>
      <point x="150" y="500" type="line"/>
      <point x="450" y="500" type="line"/>
      <point x="450" y="450" type="line"/>
      <point x="500" y="450" type="line"/>
      <point x="500" y="400" type="line"/>
      <point x="550" y="400" type="line"/>
      <point x="550" y="0" type="line"/>
      <point x="150" y="0" type="line"/>
      <point x="150" y="50" type="line"/>
      <point x="100" y="50" type="line"/>
      <point x="100" y="100" type="line"/>
    </contour>
    <contour>
      <point x="200" y="100" type="line"/>
      <point x="450" y="100" type="line"/>
      <point x="450" y="200" type="line"/>
      <point x="200" y="200" type="line"/>
    </contour>
  </outline>
</glyph>
<glyph name="c" format="2">
  <advance width="600"/>
  <unicode hex="0063"/>
  <anchor x="300" y="0" name="below"/>
  <outline>
    <contour>
      <point x="450" y="0" type="line"/>
      <point x="150" y="0" type="line"/>
      <point x="150" y="50" type="line"/>
      <point x="100" y="50" type="line"/>
      <point x="100" y="100" type="line"/>
      <point x="50" y="100" type="line"/>
      <point x="50" y="400" type="line"/>
      <point x="100" y="400" type="line"/>
      <point x="100" y="450" type="line"/>
      <point x="150" y="450" type="line"/>
      <point x="150" y="500" type="line"/>
      <point x="450" y="500" type="line"/>
      <point x="450" y="450" type="line"/>
      <point x="500" y="450" type="line"/>
      <point x="500" y="400" type="line"/>
      <point x="550" y="400" type="line"/>
      <point x="550" y="300" type="line"/>
      <point x="450" y="300" type="line"/>
      <point x="450" y="350" type="line"/>
      <point x="400" y="350" type="line"/>
      <point x="400" y="400" type="line"/>
      <point x="200" y="400" type="line"/>
      <point x="200" y="350" type="line"/>
      <point x="150" y="350" type="line"/>
      <point x="150" y="150" type="line"/>
      <point x="200" y="150" type="line"/>
      <point x="200" y="100" type="line"/>
      <point x="400" y="100" type="line"/>
      <point x="400" y="150" type="line"/>
      <point x="450" y="150" type="line"/>
      <point x="450" y="200" type="line"/>
      <point x="550" y="200" type="line"/>
      <point x="550" y="100" type="line"/>
      <point x="500" y="100" type="line"/>
      <point x="500" y="50" type="line"/>
      <point x="450" y="50" type="line"/>
    </contour>
  </outline>
</glyph>
<glyph name="e" format="2">
  <advance width="601"/>
  <unicode hex="0065"/>
  <outline>
    <contour>
      <point x="450" y="0" type="line"/>
      <point x="150" y="0" type="line"/>
      <point x="150" y="50" type="line"/>
      <point x="100" y="50" type="line"/>
      <point x="100" y="100" type="line"/>
      <point x="50" y="100" type="line"/>
      <point x="50" y="400" type="line"/>
      <point x="100" y="400" type="line"/>
      <point x="100" y="450" type="line"/>
      <point x="150" y="450" type="line"/>
      <point x="150" y="500" type="line"/>
      <point x="450" y="500" type="line"/>
      <point x="450" y="450" type="line"/>
      <point x="500" y="450" type="line"/>
      <point x="500" y="400" type="line"/>
      <point x="550" y="400" type="line"/>
      <point x="550" y="200" type="line"/>
      <point x="150" y="200" type="line"/>
      <point x="150" y="150" type="line"/>
      <point x="200" y="150" type="line"/>
      <point x="200" y="100" type="line"/>
      <point x="450" y="100" type="line"/>
    </contour>
    <contour>
      <point x="150" y="300" type="line"/>
      <point x="450" y="300" type="line"/>
      <point x="450" y="350" type="line"/>
      <point x="400" y="350" type="line"/>
      <point x="400" y="400" type="line"/>
      <point x="200" y="400" type="line"/>
      <point x="200" y="350" type="line"/>
      <point x="150" y="350" type="line"/>
    </contour>
  </outline>
</glyph>
<glyph name="g" format="2">
  <advance width="600"/>
  <unicode hex="0067"/>
  <anchor x="300" y="600" name="above"/>
  <outline>
    <contour>
      <point x="150" y="-200" type="line"/>
      <point x="150" y="-100" type="line"/>
      <point x="400" y="-100" type="line"/>
      <point x="400" y="-50" type="line"/>
      <point x="450" y="-50" type="line"/>
      <point x="450" y="100" type="line"/>
      <point x="400" y="100" type="line"/>
      <point x="400" y="50" type="line"/>
      <point x="350" y="50" type="line"/>
      <point x="350" y="0" type="line"/>
      <point x="150" y="0" type="line"/>
      <point x="150" y="50" type="line"/>
      <point x="100" y="50" type="line"/>
      <point x="100" y="100" type="line"/>
      <point x="50" y="100" type="line"/>
      <point x="50" y="400" type="line"/>
      <point x="100" y="400" type="line"/>
      <point x="100" y="450" type="line"/>
      <point x="150" y="450" type="line"/>
      <point x="150" y="500" type="line"/>
      <point x="350" y="500" type="line"/>
      <point x="350" y="450" type="line"/>
      <point x="400" y="450" type="line"/>
      <point x="400" y="400" type="line"/>
      <point x="450" y="400" type="line"/>
      <point x="450" y="500" type="line"/>
      <point x="550" y="500" type="line"/>
      <point x="550" y="-100" type="line"/>
      <point x="500" y="-100" type="line"/>
      <point x="500" y="-150" type="line"/>
      <point x="450" y="-150" type="line"/>
      <point x="450" y="-200" type="line"/>
    </contour>
    <contour>
      <point x="200" y="100" type="line"/>
      <point x="300" y="100" type="line"/>
      <point x="300" y="150" type="line"/>
      <point x="350" y="150" type="line"/>
      <point x="350" y="200" type="line"/>
      <point x="400" y="200" type="line"/>
      <point x="400" y="300" type="line"/>
      <point x="350" y="300" type="line"/>
      <point x="350" y="350" type="line"/>
      <point x="300" y="350" type="line"/>
      <point x="300" y="400" type="line"/>
      <point x="200" y="400" type="line"/>
      <point x="200" y="350" type="line"/>
      <point x="150" y="350" type="line"/>
      <point x="150" y="150" type="line"/>
      <point x="200" y="150" type="line"/>
    </contour>
  </outline>
</glyph>
<glyph name="j" format="2">
  <advance width="501"/>
  <unicode hex="006A"/>
  <outline>
    <contour>
      <point x="50" y="-100" type="line"/>
      <point x="50" y="0" type="line"/>
      <point x="150" y="0" type="line"/>
      <point x="150" y="-50" type="line"/>
      <point x="200" y="-50" type="line"/>
      <point x="200" y="-100" type="line"/>
      <point x="300" y="-100" type="line"/>
      <point x="300" y="-50" type="line"/>
      <point x="350" y="-50" type="line"/>
      <point x="350" y="400" type="line"/>
      <point x="250" y="400" type="line"/>
      <point x="250" y="500" type="line"/>
      <point x="450" y="500" type="line"/>
      <point x="450" y="-100" type="line"/>
      <point x="400" y="-100" type="line"/>
      <point x="400" y="-150" type="line"/>
      <point x="350" y="-150" type="line"/>
      <point x="350" y="-200" type="line"/>
      <point x="150" y="-200" type="line"/>
      <point x="150" y="-150" type="line"/>
      <point x="100" y="-150" type="line"/>
      <point x="100" y="-100" type="line"/>
    </contour>
    <contour>
      <point x="350" y="600" type="line"/>
      <point x="350" y="700" type="line"/>
      <point x="450" y="700" type="line"/>
      <point x="450" y="600" type="line"/>
    </contour>
  </outline>
</glyph>
<glyph name="m" format="2">
  <advance width="600"/>
  <unicode hex="006D"/>
  <anchor x="300" y="0" name="marks_below"/>
  <anchor x="300" y="600" name="marks_above"/>
  <outline>
    <contour>
      <point x="450" y="0" type="line"/>
      <point x="450" y="350" type="line"/>
      <point x="350" y="350" type="line"/>
      <point x="350" y="100" type="line"/>
      <point x="250" y="100" type="line"/>
      <point x="250" y="350" type="line"/>
      <point x="200" y="350" type="line"/>
      <point x="200" y="400" type="line"/>
      <point x="150" y="400" type="line"/>
      <point x="150" y="0" type="line"/>
      <point x="50" y="0" type="line"/>
      <point x="50" y="500" type="line"/>
      <point x="250" y="500" type="line"/>
      <point x="250" y="450" type="line"/>
      <point x="350" y="450" type="line"/>
      <point x="350" y="500" type="line"/>
      <point x="450" y="500" type="line"/>
      <point x="450" y="450" type="line"/>
      <point x="500" y="450" type="line"/>
      <point x="500" y="400" type="line"/>
      <point x="550" y="400" type="line"/>
      <point x="550" y="0" type="line"/>
    </contour>
  </outline>
</glyph>
<glyph name="s" format="2">
  <advance width="600"/>
  <unicode hex="0073"/>
  <anchor x="300" y="0" name="marks_below"/>
  <anchor x="300" y="600" name="marks_above"/>
  <outline>
    <contour>
      <point x="50" y="0" type="line"/>
      <point x="50" y="100" type="line"/>
      <point x="400" y="100" type="line"/>
      <point x="400" y="200" type="line"/>
      <point x="150" y="200" type="line"/>
      <point x="150" y="250" type="line"/>
      <point x="100" y="250" type="line"/>
      <point x="100" y="300" type="line"/>
      <point x="50" y="300" type="line"/>
      <point x="50" y="400" type="line"/>
      <point x="100" y="400" type="line"/>
      <point x="100" y="450" type="line"/>
      <point x="150" y="450" type="line"/>
      <point x="150" y="500" type="line"/>
      <point x="550" y="500" type="line"/>
      <point x="550" y="400" type="line"/>
      <point x="200" y="400" type="line"/>
      <point x="200" y="300" type="line"/>
      <point x="450" y="300" type="line"/>
      <point x="450" y="250" type="line"/>
      <point x="500" y="250" type="line"/>
      <point x="500" y="200" type="line"/>
      <point x="550" y="200" type="line"/>
      <point x="550" y="100" type="line"/>
      <point x="500" y="100" type="line"/>
      <point x="500" y="50" type="line"/>
      <point x="450" y="50" type="line"/>
      <point x="450" y="0" type="line"/>
    </contour>
  </outline>
</glyph>
<glyph name="t" format="2">
  <advance width="600"/>
  <unicode hex="0074"/>
  <anchor x="350" y="650" name="aboveright"/>
  <anchor x="300" y="0" name="below"/>
  <outline>
    <contour>
      <point x="50" y="400" type="line"/>
      <point x="50" y="500" type="line"/>
      <point x="150" y="500" type="line"/>
      <point x="150" y="700" type="line"/>
      <point x="250" y="700" type="line"/>
      <point x="250" y="500" type="line"/>
      <point x="450" y="500" type="line"/>
      <point x="450" y="400" type="line"/>
      <point x="250" y="400" type="line"/>
      <point x="250" y="150" type="line"/>
      <point x="300" y="150" type="line"/>
      <point x="300" y="100" type="line"/>
      <point x="400" y="100" type="line"/>
      <point x="400" y="150" type="line"/>
      <point x="450" y="150" type="line"/>
      <point x="450" y="200" type="line"/>
      <point x="550" y="200" type="line"/>
      <point x="550" y="100" type="line"/>
      <point x="500" y="100" type="line"/>
      <point x="500" y="50" type="line"/>
      <point x="450" y="50" type="line"/>
      <point x="450" y="0" type="line"/>
      <point x="250" y="0" type="line"/>
      <point x="250" y="50" type="line"/>
      <point x="200" y="50" type="line"/>
      <point x="200" y="100" type="line"/>
      <point x="150" y="100" type="line"/>
      <point x="150" y="400" type="line"/>
    </contour>
  </outline>
</glyph>
<glyph name="u" format="2">
  <advance width="600"/>
  <unicode hex="0075"/>
  <anchor x="450" y="0" name="ogonek"/>
  <anchor x="300" y="600" name="above"/>
  <outline>
    <contour>
      <point x="350" y="0" type="line"/>
      <point x="150" y="0" type="line"/>
      <point x="150" y="50" type="line"/>
      <point x="100" y="50" type="line"/>
      <point x="100" y="100" type="line"/>
      <point x="50" y="100" type="line"/>
      <point x="50" y="500" type="line"/>
      <point x="150" y="500" type="line"/>
      <point x="150" y="150" type="line"/>
      <point x="200" y="150" type="line"/>
      <point x="200" y="100" type="line"/>
      <point x="300" y="100" type="line"/>
      <point x="300" y="150" type="line"/>
      <point x="350" y="150" type="line"/>
      <point x="350" y="200" type="line"/>
      <point x="450" y="200" type="line"/>
      <point x="450" y="500" type="line"/>
      <point x="550" y="500" type="line"/>
      <point x="550" y="0" type="line"/>
      <point x="450" y="0" type="line"/>
      <point x="450" y="100" type="line"/>
      <point x="400" y="100" type="line"/>
      <point x="400" y="50" type="line"/>
      <point x="350" y="50" type="line"/>
    </contour>
  </outline>
</glyph>
<glyph name="x" format="2">
  <advance width="600"/>
  <unicode hex="0078"/>
  <outline>
    <contour>
      <point x="50" y="0" type="line"/>
      <point x="50" y="100" type="line"/>
      <point x="100" y="100" type="line"/>
      <point x="100" y="150" type="line"/>
      <point x="150" y="150" type="line"/>
      <point x="150" y="200" type="line"/>
      <point x="200" y="200" type="line"/>
      <point x="200" y="300" type="line"/>
      <point x="150" y="300" type="line"/>
      <point x="150" y="350" type="line"/>
      <point x="100" y="350" type="line"/>
      <point x="100" y="400" type="line"/>
      <point x="50" y="400" type="line"/>
      <point x="50" y="500" type="line"/>
      <point x="150" y="500" type="line"/>
      <point x="150" y="450" type="line"/>
      <point x="200" y="450" type="line"/>
      <point x="200" y="400" type="line"/>
      <point x="250" y="400" type="line"/>
      <point x="250" y="350" type="line"/>
      <point x="350" y="350" type="line"/>
      <point x="350" y="400" type="line"/>
      <point x="400" y="400" type="line"/>
      <point x="400" y="450" type="line"/>
      <point x="450" y="450" type="line"/>
      <point x="450" y="500" type="line"/>
      <point x="550" y="500" type="line"/>
      <point x="550" y="400" type="line"/>
      <point x="500" y="400" type="line"/>
      <point x="500" y="350" type="line"/>
      <point x="450" y="350" type="line"/>
      <point x="450" y="300" type="line"/>
      <point x="400" y="300" type="line"/>
      <point x="400" y="200" type="line"/>
      <point x="450" y="200" type="line"/>
      <point x="450" y="150" type="line"/>
      <point x="500" y="150" type="line"/>
      <point x="500" y="100" type="line"/>
      <point x="550" y="100" type="line"/>
      <point x="550" y="0" type="line"/>
      <point x="450" y="0" type="line"/>
      <point x="450" y="50" type="line"/>
      <point x="400" y="50" type="line"/>
      <point x="400" y="100" type="line"/>
      <point x="350" y="100" type="line"/>
      <point x="350" y="150" type="line"/>
      <point x="250" y="150" type="line"/>
      <point x="250" y="100" type="line"/>
      <point x="200" y="100" type="line"/>
      <point x="200" y="50" type="line"/>
      <point x="150" y="50" type="line"/>
      <point x="150" y="0" type="line"/>
    </contour>
  </outline>
</glyph>
<glyph name="z" format="2">
  <advance width="600"/>
  <unicode hex="007A"/>
  <outline>
    <contour>
      <point x="50" y="0" type="line"/>
      <point x="50" y="100" type="line"/>
      <point x="100" y="100" type="line"/>
      <point x="100" y="150" type="line"/>
      <point x="150" y="150" type="line"/>
      <point x="150" y="200" type="line"/>
      <point x="200" y="200" type="line"/>
      <point x="200" y="250" type="line"/>
      <point x="250" y="250" type="line"/>
      <point x="250" y="300" type="line"/>
      <point x="300" y="300" type="line"/>
      <point x="300" y="350" type="line"/>
      <point x="350" y="350" type="line"/>
      <point x="350" y="400" type="line"/>
      <point x="50" y="400" type="line"/>
      <point x="50" y="500" type="line"/>
      <point x="550" y="500" type="line"/>
      <point x="550" y="400" type="line"/>
      <point x="500" y="400" type="line"/>
      <point x="500" y="350" type="line"/>
      <point x="450" y="350" type="line"/>
      <point x="450" y="300" type="line"/>
      <point x="400" y="300" type="line"/>
      <point x="400" y="250" type="line"/>
      <point x="350" y="250" type="line"/>
      <point x="350" y="200" type="line"/>
      <point x="300" y="200" type="line"/>
      <point x="300" y="150" type="line"/>
      <point x="250" y="150" type="line"/>
      <point x="250" y="100" type="line"/>
      <point x="550" y="100" type="line"/>
      <point x="550" y="0" type="line"/>
    </contour>
  </outline>
</glyph>
<glyph name="braceleft" format="2">
  <advance width="501"/>
  <unicode hex="007B"/>
  <outline>
    <contour>
      <point x="150" y="100" type="line"/>
      <point x="150" y="200" type="line"/>
      <point x="200" y="200" type="line"/>
      <point x="200" y="300" type="line"/>
      <point x="50" y="300" type="line"/>
      <point x="50" y="400" type="line"/>
      <point x="200" y="400" type="line"/>
      <point x="200" y="500" type="line"/>
      <point x="150" y="500" type="line"/>
      <point x="150" y="600" type="line"/>
      <point x="200" y="600" type="line"/>
      <point x="200" y="650" type="line"/>
      <point x="250" y="650" type="line"/>
      <point x="250" y="700" type="line"/>
      <point x="450" y="700" type="line"/>
      <point x="450" y="600" type="line"/>
      <point x="300" y="600" type="line"/>
      <point x="300" y="500" type="line"/>
      <point x="350" y="500" type="line"/>
      <point x="350" y="400" type="line"/>
      <point x="300" y="400" type="line"/>
      <point x="300" y="300" type="line"/>
      <point x="350" y="300" type="line"/>
      <point x="350" y="200" type="line"/>
      <point x="300" y="200" type="line"/>
      <point x="300" y="100" type="line"/>
      <point x="450" y="100" type="line"/>
      <point x="450" y="0" type="line"/>
      <point x="250" y="0" type="line"/>
      <point x="250" y="50" type="line"/>
      <point x="200" y="50" type="line"/>
      <point x="200" y="100" type="line"/>
    </contour>
  </outline>
</glyph>
<glyph name="braceright" format="2">
  <advance width="500"/>
  <unicode hex="007D"/>
  <outline>
    <contour>
      <point x="50" y="0" type="line"/>
      <point x="50" y="100" type="line"/>
      <point x="200" y="100" type="line"/>
      <point x="200" y="200" type="line"/>
      <point x="150" y="200" type="line"/>
      <point x="150" y="300" type="line"/>
      <point x="200" y="300" type="line"/>
      <point x="200" y="400" type="line"/>
      <point x="150" y="400" type="line"/>
      <point x="150" y="500" type="line"/>
      <point x="200" y="500" type="line"/>
      <point x="200" y="600" type="line"/>
      <point x="50" y="600" type="line"/>
      <point x="50" y="700" type="line"/>
      <point x="250" y="700" type="line"/>
      <point x="250" y="650" type="line"/>
      <point x="300" y="650" type="line"/>
      <point x="300" y="600" type="line"/>
      <point x="350" y="600" type="line"/>
      <point x="350" y="500" type="line"/>
      <point x="300" y="500" type="line"/>
      <point x="300" y="400" type="line"/>
      <point x="450" y="400" type="line"/>
      <point x="450" y="300" type="line"/>
      <point x="300" y="300" type="line"/>
      <point x="300" y="200" type="line"/>
      <point x="350" y="200" type="line"/>
      <point x="350" y="100" type="line"/>
      <point x="300" y="100" type="line"/>
      <point x="300" y="50" type="line"/>
      <point x="250" y="50" type="line"/>
      <point x="250" y="0" type="line"/>
    </contour>
  </outline>
</glyph>
<glyph name="asciitilde" format="2">
  <advance width="601"/>
  <unicode hex="007E"/>
  <outline>
    <contour>
      <point x="50" y="200" type="line"/>
      <point x="50" y="400" type="line"/>
      <point x="100" y="400" type="line"/>
      <point x="100" y="450" type="line"/>
      <point x="150" y="450" type="line"/>
      <point x="150" y="500" type="line"/>
      <point x="250" y="500" type="line"/>
      <point x="250" y="450" type="line"/>
      <point x="300" y="450" type="line"/>
      <point x="300" y="400" type="line"/>
      <point x="350" y="400" type="line"/>
      <point x="350" y="350" type="line"/>
      <point x="450" y="350" type="line"/>
      <point x="450" y="500" type="line"/>
      <point x="550" y="500" type="line"/>
      <point x="550" y="300" type="line"/>
      <point x="500" y="300" type="line"/>
      <point x="500" y="250" type="line"/>
      <point x="450" y="250" type="line"/>
      <point x="450" y="200" type="line"/>
      <point x="350" y="200" type="line"/>
      <point x="350" y="250" type="line"/>
      <point x="300" y="250" type="line"/>
      <point x="300" y="300" type="line"/>
      <point x="250" y="300" type="line"/>
      <point x="250" y="350" type="line"/>
      <point x="150" y="350" type="line"/>
      <point x="150" y="200" type="line"/>
    </contour>
  </outline>
</glyph>
<glyph name="exclamdown" format="2">
  <advance width="800"/>
  <unicode hex="00A1"/>
  <outline>
    <contour>
      <point x="200" y="400" type="line"/>
      <point x="200" y="500" type="line"/>
      <point x="300" y="500" type="line"/>
      <point x="300" y="400" type="line"/>
    </contour>
    <contour>
      <point x="200" y="-200" type="line"/>
      <point x="200" y="300" type="line"/>
      <point x="300" y="300" type="line"/>
      <point x="300" y="-200" type="line"/>
    </contour>
  </outline>
</glyph>
<glyph name="yen" format="2">
  <advance width="600"/>
  <unicode hex="00A5"/>
  <outline>
    <contour>
      <point x="150" y="100" type="line"/>
      <point x="150" y="200" type="line"/>
      <point x="450" y="200" type="line"/>
      <point x="450" y="100" type="line"/>
      <point x="350" y="100" type="line"/>
      <point x="350" y="0" type="line"/>
      <point x="250" y="0" type="line"/>
      <point x="250" y="100" type="line"/>
    </contour>
    <contour>
      <point x="150" y="300" type="line"/>
      <point x="150" y="400" type="line"/>
      <point x="250" y="400" type="line"/>
      <point x="250" y="450" type="line"/>
      <point x="200" y="450" type="line"/>
      <point x="200" y="500" type="line"/>
      <point x="150" y="500" type="line"/>
      <point x="150" y="550" type="line"/>
      <point x="100" y="550" type="line"/>
      <point x="100" y="600" type="line"/>
      <point x="50" y="600" type="line"/>
      <point x="50" y="700" type="line"/>
      <point x="150" y="700" type="line"/>
      <point x="150" y="650" type="line"/>
      <point x="200" y="650" type="line"/>
      <point x="200" y="600" type="line"/>
      <point x="250" y="600" type="line"/>
      <point x="250" y="550" type="line"/>
      <point x="350" y="550" type="line"/>
      <point x="350" y="600" type="line"/>
      <point x="400" y="600" type="line"/>
      <point x="400" y="650" type="line"/>
      <point x="450" y="650" type="line"/>
      <point x="450" y="700" type="line"/>
      <point x="550" y="700" type="line"/>
      <point x="550" y="600" type="line"/>
      <point x="500" y="600" type="line"/>
      <point x="500" y="550" type="line"/>
      <point x="450" y="550" type="line"/>
      <point x="450" y="500" type="line"/>
      <point x="400" y="500" type="line"/>
      <point x="400" y="450" type="line"/>
      <point x="350" y="450" type="line"/>
      <point x="350" y="400" type="line"/>
      <point x="450" y="400" type="line"/>
      <point x="450" y="300" type="line"/>
      <point x="350" y="300" type="line"/>
      <point x="350" y="200" type="line"/>
      <point x="250" y="200" type="line"/>
      <point x="250" y="300" type="line"/>
    </contour>
  </outline>
</glyph>
<glyph name="ordfeminine" format="2">
  <advance width="500"/>
  <unicode hex="00AA"/>
  <outline>
    <contour>
      <point x="50" y="100" type="line"/>
      <point x="50" y="200" type="line"/>
      <point x="450" y="200" type="line"/>
      <point x="450" y="100" type="line"/>
    </contour>
    <contour>
      <point x="450" y="300" type="line"/>
      <point x="150" y="300" type="line"/>
      <point x="150" y="350" type="line"/>
      <point x="100" y="350" type="line"/>
      <point x="100" y="400" type="line"/>
      <point x="50" y="400" type="line"/>
      <point x="50" y="600" type="line"/>
      <point x="100" y="600" type="line"/>
      <point x="100" y="650" type="line"/>
      <point x="150" y="650" type="line"/>
      <point x="150" y="700" type="line"/>
      <point x="450" y="700" type="line"/>
    </contour>
    <contour>
      <point x="200" y="400" type="line"/>
      <point x="350" y="400" type="line"/>
      <point x="350" y="600" type="line"/>
      <point x="200" y="600" type="line"/>
      <point x="200" y="550" type="line"/>
      <point x="150" y="550" type="line"/>
      <point x="150" y="450" type="line"/>
      <point x="200" y="450" type="line"/>
    </contour>
  </outline>
</glyph>
<glyph name="logicalnot" format="2">
  <advance width="600"/>
  <unicode hex="00AC"/>
  <outline>
    <contour>
      <point x="50" y="300" type="line"/>
      <point x="50" y="400" type="line"/>
      <point x="550" y="400" type="line"/>
      <point x="550" y="100" type="line"/>
      <point x="450" y="100" type="line"/>
      <point x="450" y="300" type="line"/>
    </contour>
  </outline>
</glyph>
<glyph name="registered" format="2">
  <advance width="700"/>
  <unicode hex="00AE"/>
  <outline>
    <contour>
      <point x="550" y="0" type="line"/>
      <point x="150" y="0" type="line"/>
      <point x="150" y="50" type="line"/>
      <point x="100" y="50" type="line"/>
      <point x="100" y="100" type="line"/>
      <point x="50" y="100" type="line"/>
      <point x="50" y="600" type="line"/>
      <point x="100" y="600" type="line"/>
      <point x="100" y="650" type="line"/>
      <point x="150" y="650" type="line"/>
      <point x="150" y="700" type="line"/>
      <point x="550" y="700" type="line"/>
      <point x="550" y="650" type="line"/>
      <point x="600" y="650" type="line"/>
      <point x="600" y="600" type="line"/>
      <point x="650" y="600" type="line"/>
      <point x="650" y="100" type="line"/>
      <point x="600" y="100" type="line"/>
      <point x="600" y="50" type="line"/>
      <point x="550" y="50" type="line"/>
    </contour>
    <contour>
      <point x="200" y="100" type="line"/>
      <point x="500" y="100" type="line"/>
      <point x="500" y="150" type="line"/>
      <point x="550" y="150" type="line"/>
      <point x="550" y="550" type="line"/>
      <point x="500" y="550" type="line"/>
      <point x="500" y="600" type="line"/>
      <point x="200" y="600" type="line"/>
      <point x="200" y="550" type="line"/>
      <point x="150" y="550" type="line"/>
      <point x="150" y="150" type="line"/>
      <point x="200" y="150" type="line"/>
    </contour>
    <contour>
      <point x="250" y="200" type="line"/>
      <point x="250" y="500" type="line"/>
      <point x="450" y="500" type="line"/>
      <point x="450" y="400" type="line"/>
      <point x="350" y="400" type="line"/>
      <point x="350" y="200" type="line"/>
    </contour>
  </outline>
</glyph>
<glyph name="degree" format="2">
  <advance width="500"/>
  <unicode hex="00B0"/>
  <outline>
    <contour>
      <point x="350" y="300" type="line"/>
      <point x="150" y="300" type="line"/>
      <point x="150" y="350" type="line"/>
      <point x="100" y="350" type="line"/>
      <point x="100" y="400" type="line"/>
      <point x="50" y="400" type="line"/>
      <point x="50" y="600" type="line"/>
      <point x="100" y="600" type="line"/>
      <point x="100" y="650" type="line"/>
      <point x="150" y="650" type="line"/>
      <point x="150" y="700" type="line"/>
      <point x="350" y="700" type="line"/>
      <point x="350" y="650" type="line"/>
      <point x="400" y="650" type="line"/>
      <point x="400" y="600" type="line"/>
      <point x="450" y="600" type="line"/>
      <point x="450" y="400" type="line"/>
      <point x="400" y="400" type="line"/>
      <point x="400" y="350" type="line"/>
      <point x="350" y="350" type="line"/>
    </contour>
    <contour>
      <point x="200" y="400" type="line"/>
      <point x="300" y="400" type="line"/>
      <point x="300" y="450" type="line"/>
      <point x="350" y="450" type="line"/>
      <point x="350" y="550" type="line"/>
      <point x="300" y="550" type="line"/>
      <point x="300" y="600" type="line"/>
      <point x="200" y="600" type="line"/>
      <point x="200" y="550" type="line"/>
      <point x="150" y="550" type="line"/>
      <point x="150" y="450" type="line"/>
      <point x="200" y="450" type="line"/>
    </contour>
  </outline>
</glyph>
<glyph name="uni00B3" format="2">
  <advance width="400"/>
  <unicode hex="00B3"/>
  <outline>
    <contour>
      <point x="50" y="200" type="line"/>
      <point x="50" y="300" type="line"/>
      <point x="200" y="300" type="line"/>
      <point x="200" y="400" type="line"/>
      <point x="50" y="400" type="line"/>
      <point x="50" y="500" type="line"/>
      <point x="200" y="500" type="line"/>
      <point x="200" y="600" type="line"/>
      <point x="50" y="600" type="line"/>
      <point x="50" y="700" type="line"/>
      <point x="250" y="700" type="line"/>
      <point x="250" y="650" type="line"/>
      <point x="300" y="650" type="line"/>
      <point x="300" y="600" type="line"/>
      <point x="350" y="600" type="line"/>
      <point x="350" y="500" type="line"/>
      <point x="300" y="500" type="line"/>
      <point x="300" y="400" type="line"/>
      <point x="350" y="400" type="line"/>
      <point x="350" y="300" type="line"/>
      <point x="300" y="300" type="line"/>
      <point x="300" y="250" type="line"/>
      <point x="250" y="250" type="line"/>
      <point x="250" y="200" type="line"/>
    </contour>
  </outline>
</glyph>
<glyph name="mu" format="2">
  <advance width="600"/>
  <unicode hex="00B5"/>
  <outline>
    <contour>
      <point x="50" y="-200" type="line"/>
      <point x="50" y="500" type="line"/>
      <point x="150" y="500" type="line"/>
      <point x="150" y="100" type="line"/>
      <point x="300" y="100" type="line"/>
      <point x="300" y="150" type="line"/>
      <point x="350" y="150" type="line"/>
      <point x="350" y="500" type="line"/>
      <point x="450" y="500" type="line"/>
      <point x="450" y="150" type="line"/>
      <point x="500" y="150" type="line"/>
      <point x="500" y="100" type="line"/>
      <point x="550" y="100" type="line"/>
      <point x="550" y="0" type="line"/>
      <point x="450" y="0" type="line"/>
      <point x="450" y="50" type="line"/>
      <point x="350" y="50" type="line"/>
      <point x="350" y="0" type="line"/>
      <point x="150" y="0" type="line"/>
      <point x="150" y="-200" type="line"/>
    </contour>
  </outline>
</glyph>
<glyph name="uni00B9" format="2">
  <advance width="400"/>
  <unicode hex="00B9"/>
  <outline>
    <contour>
      <point x="50" y="200" type="line"/>
      <point x="50" y="300" type="line"/>
      <point x="150" y="300" type="line"/>
      <point x="150" y="500" type="line"/>
      <point x="50" y="500" type="line"/>
      <point x="50" y="600" type="line"/>
      <point x="150" y="600" type="line"/>
      <point x="150" y="700" type="line"/>
      <point x="250" y="700" type="line"/>
      <point x="250" y="300" type="line"/>
      <point x="350" y="300" type="line"/>
      <point x="350" y="200" type="line"/>
    </contour>
  </outline>
</glyph>
<glyph name="Eth" format="2">
  <advance width="600"/>
  <unicode hex="00D0"/>
  <anchor x="300" y="0" name="marks_below"/>
  <anchor x="300" y="800" name="marks_above"/>
  <outline>
    <contour>
      <point x="50" y="300" type="line"/>
      <point x="50" y="400" type="line"/>
      <point x="150" y="400" type="line"/>
      <point x="150" y="700" type="line"/>
      <point x="350" y="700" type="line"/>
      <point x="350" y="650" type="line"/>
      <point x="400" y="650" type="line"/>
      <point x="400" y="600" type="line"/>
      <point x="450" y="600" type="line"/>
      <point x="450" y="550" type="line"/>
      <point x="500" y="550" type="line"/>
      <point x="500" y="500" type="line"/>
      <point x="550" y="500" type="line"/>
      <point x="550" y="200" type="line"/>
      <point x="500" y="200" type="line"/>
      <point x="500" y="150" type="line"/>
      <point x="450" y="150" type="line"/>
      <point x="450" y="100" type="line"/>
      <point x="400" y="100" type="line"/>
      <point x="400" y="50" type="line"/>
      <point x="350" y="50" type="line"/>
      <point x="350" y="0" type="line"/>
      <point x="150" y="0" type="line"/>
      <point x="150" y="300" type="line"/>
    </contour>
    <contour>
      <point x="250" y="100" type="line"/>
      <point x="300" y="100" type="line"/>
      <point x="300" y="150" type="line"/>
      <point x="350" y="150" type="line"/>
      <point x="350" y="200" type="line"/>
      <point x="400" y="200" type="line"/>
      <point x="400" y="250" type="line"/>
      <point x="450" y="250" type="line"/>
      <point x="450" y="450" type="line"/>
      <point x="400" y="450" type="line"/>
      <point x="400" y="500" type="line"/>
      <point x="350" y="500" type="line"/>
      <point x="350" y="550" type="line"/>
      <point x="300" y="550" type="line"/>
      <point x="300" y="600" type="line"/>
      <point x="250" y="600" type="line"/>
      <point x="250" y="400" type="line"/>
      <point x="350" y="400" type="line"/>
      <point x="350" y="300" type="line"/>
      <point x="250" y="300" type="line"/>
    </contour>
  </outline>
</glyph>
<glyph name="aring" format="2">
  <advance width="600"/>
  <unicode hex="00E5"/>
  <outline>
    <contour>
      <point x="150" y="600" type="line"/>
      <point x="150" y="700" type="line"/>
      <point x="200" y="700" type="line"/>
      <point x="200" y="750" type="line"/>
      <point x="250" y="750" type="line"/>
      <point x="250" y="800" type="line"/>
      <point x="350" y="800" type="line"/>
      <point x="350" y="750" type="line"/>
      <point x="400" y="750" type="line"/>
      <point x="400" y="700" type="line"/>
      <point x="450" y="700" type="line"/>
      <point x="450" y="600" type="line"/>
      <point x="400" y="600" type="line"/>
      <point x="400" y="550" type="line"/>
      <point x="350" y="550" type="line"/>
      <point x="350" y="500" type="line"/>
      <point x="450" y="500" type="line"/>
      <point x="450" y="450" type="line"/>
      <point x="500" y="450" type="line"/>
      <point x="500" y="400" type="line"/>
      <point x="550" y="400" type="line"/>
      <point x="550" y="0" type="line"/>
      <point x="150" y="0" type="line"/>
      <point x="150" y="50" type="line"/>
      <point x="100" y="50" type="line"/>
      <point x="100" y="100" type="line"/>
      <point x="50" y="100" type="line"/>
      <point x="50" y="200" type="line"/>
      <point x="100" y="200" type="line"/>
      <point x="100" y="250" type="line"/>
      <point x="150" y="250" type="line"/>
      <point x="150" y="300" type="line"/>
      <point x="450" y="300" type="line"/>
      <point x="450" y="350" type="line"/>
      <point x="400" y="350" type="line"/>
      <point x="400" y="400" type="line"/>
      <point x="150" y="400" type="line"/>
      <point x="150" y="500" type="line"/>
      <point x="250" y="500" type="line"/>
      <point x="250" y="550" type="line"/>
      <point x="200" y="550" type="line"/>
      <point x="200" y="600" type="line"/>
    </contour>
    <contour>
      <point x="250" y="600" type="line"/>
      <point x="350" y="600" type="line"/>
      <point x="350" y="700" type="line"/>
      <point x="250" y="700" type="line"/>
    </contour>
    <contour>
      <point x="450" y="200" type="line"/>
      <point x="200" y="200" type="line"/>
      <point x="200" y="100" type="line"/>
      <point x="450" y="100" type="line"/>
    </contour>
  </outline>
</glyph>
<glyph name="iogonek" format="2">
  <advance width="400"/>
  <unicode hex="012F"/>
  <outline>
    <contour>
      <point x="150" y="600" type="line"/>
      <point x="150" y="700" type="line"/>
      <point x="250" y="700" type="line"/>
      <point x="250" y="600" type="line"/>
    </contour>
    <contour>
      <point x="50" y="400" type="line"/>
      <point x="50" y="500" type="line"/>
      <point x="250" y="500" type="line"/>
      <point x="250" y="100" type="line"/>
      <point x="350" y="100" type="line"/>
      <point x="350" y="0" type="line"/>
      <point x="250" y="0" type="line"/>
      <point x="250" y="-100" type="line"/>
      <point x="350" y="-100" type="line"/>
      <point x="350" y="-200" type="line"/>
      <point x="150" y="-200" type="line"/>
      <point x="150" y="0" type="line"/>
      <point x="50" y="0" type="line"/>
      <point x="50" y="100" type="line"/>
      <point x="150" y="100" type="line"/>
      <point x="150" y="400" type="line"/>
    </contour>
  </outline>
</glyph>
<glyph name="IJ" format="2">
  <advance width="600"/>
  <unicode hex="0132"/>
  <outline>
    <contour>
      <point x="250" y="100" type="line"/>
      <point x="250" y="200" type="line"/>
      <point x="350" y="200" type="line"/>
      <point x="350" y="100" type="line"/>
      <point x="450" y="100" type="line"/>
      <point x="450" y="700" type="line"/>
      <point x="550" y="700" type="line"/>
      <point x="550" y="100" type="line"/>
      <point x="450" y="100" type="line"/>
      <point x="450" y="0" type="line"/>
      <point x="350" y="0" type="line"/>
      <point x="350" y="100" type="line"/>
    </contour>
    <component base="bar"/>
  </outline>
</glyph>
<glyph name="ij" format="2">
  <advance width="600"/>
  <unicode hex="0133"/>
  <outline>
    <contour>
      <point x="150" y="600" type="line"/>
      <point x="150" y="700" type="line"/>
      <point x="250" y="700" type="line"/>
      <point x="250" y="600" type="line"/>
    </contour>
    <contour>
      <point x="50" y="400" type="line"/>
      <point x="50" y="500" type="line"/>
      <point x="250" y="500" type="line"/>
      <point x="250" y="100" type="line"/>
      <point x="350" y="100" type="line"/>
      <point x="350" y="0" type="line"/>
      <point x="50" y="0" type="line"/>
      <point x="50" y="100" type="line"/>
      <point x="150" y="100" type="line"/>
      <point x="150" y="400" type="line"/>
    </contour>
    <contour>
      <point x="250" y="-200" type="line"/>
      <point x="250" y="-100" type="line"/>
      <point x="400" y="-100" type="line"/>
      <point x="400" y="-50" type="line"/>
      <point x="450" y="-50" type="line"/>
      <point x="450" y="400" type="line"/>
      <point x="350" y="400" type="line"/>
      <point x="350" y="500" type="line"/>
      <point x="550" y="500" type="line"/>
      <point x="550" y="-100" type="line"/>
      <point x="500" y="-100" type="line"/>
      <point x="500" y="-150" type="line"/>
      <point x="450" y="-150" type="line"/>
      <point x="450" y="-200" type="line"/>
    </contour>
    <contour>
      <point x="450" y="600" type="line"/>
      <point x="450" y="700" type="line"/>
      <point x="550" y="700" type="line"/>
      <point x="550" y="600" type="line"/>
    </contour>
  </outline>
</glyph>
<glyph name="Eng" format="2">
  <advance width="600"/>
  <unicode hex="014A"/>
  <outline>
    <contour>
      <point x="250" y="-200" type="line"/>
      <point x="250" y="-100" type="line"/>
      <point x="400" y="-100" type="line"/>
      <point x="400" y="-50" type="line"/>
      <point x="450" y="-50" type="line"/>
      <point x="450" y="550" type="line"/>
      <point x="400" y="550" type="line"/>
      <point x="400" y="600" type="line"/>
      <point x="300" y="600" type="line"/>
      <point x="300" y="550" type="line"/>
      <point x="250" y="550" type="line"/>
      <point x="250" y="500" type="line"/>
      <point x="200" y="500" type="line"/>
      <point x="200" y="450" type="line"/>
      <point x="150" y="450" type="line"/>
      <point x="150" y="0" type="line"/>
      <point x="50" y="0" type="line"/>
      <point x="50" y="700" type="line"/>
      <point x="150" y="700" type="line"/>
      <point x="150" y="600" type="line"/>
      <point x="200" y="600" type="line"/>
      <point x="200" y="650" type="line"/>
      <point x="250" y="650" type="line"/>
      <point x="250" y="700" type="line"/>
      <point x="450" y="700" type="line"/>
      <point x="450" y="650" type="line"/>
      <point x="500" y="650" type="line"/>
      <point x="500" y="600" type="line"/>
      <point x="550" y="600" type="line"/>
      <point x="550" y="-100" type="line"/>
      <point x="500" y="-100" type="line"/>
      <point x="500" y="-150" type="line"/>
      <point x="450" y="-150" type="line"/>
      <point x="450" y="-200" type="line"/>
    </contour>
  </outline>
</glyph>
<glyph name="OE" format="2">
  <advance width="600"/>
  <unicode hex="0152"/>
  <outline>
    <contour>
      <point x="550" y="0" type="line"/>
      <point x="150" y="0" type="line"/>
      <point x="150" y="50" type="line"/>
      <point x="100" y="50" type="line"/>
      <point x="100" y="100" type="line"/>
      <point x="50" y="100" type="line"/>
      <point x="50" y="600" type="line"/>
      <point x="100" y="600" type="line"/>
      <point x="100" y="650" type="line"/>
      <point x="150" y="650" type="line"/>
      <point x="150" y="700" type="line"/>
      <point x="550" y="700" type="line"/>
      <point x="550" y="600" type="line"/>
      <point x="350" y="600" type="line"/>
      <point x="350" y="400" type="line"/>
      <point x="550" y="400" type="line"/>
      <point x="550" y="300" type="line"/>
      <point x="350" y="300" type="line"/>
      <point x="350" y="100" type="line"/>
      <point x="550" y="100" type="line"/>
    </contour>
    <contour>
      <point x="250" y="100" type="line"/>
      <point x="250" y="600" type="line"/>
      <point x="200" y="600" type="line"/>
      <point x="200" y="550" type="line"/>
      <point x="150" y="550" type="line"/>
      <point x="150" y="150" type="line"/>
      <point x="200" y="150" type="line"/>
      <point x="200" y="100" type="line"/>
    </contour>
  </outline>
</glyph>
<glyph name="uni0162" format="2">
  <advance width="600"/>
  <unicode hex="0162"/>
  <outline>
    <contour>
      <point x="150" y="-200" type="line"/>
      <point x="150" y="-100" type="line"/>
      <point x="250" y="-100" type="line"/>
      <point x="250" y="600" type="line"/>
      <point x="50" y="600" type="line"/>
      <point x="50" y="700" type="line"/>
      <point x="550" y="700" type="line"/>
      <point x="550" y="600" type="line"/>
      <point x="350" y="600" type="line"/>
      <point x="350" y="-200" type="line"/>
    </contour>
  </outline>
</glyph>
<glyph name="Uogonek" format="2">
  <advance width="600"/>
  <unicode hex="0172"/>
  <outline>
    <contour>
      <point x="450" y="-200" type="line"/>
      <point x="250" y="-200" type="line"/>
      <point x="250" y="0" type="line"/>
      <point x="150" y="0" type="line"/>
      <point x="150" y="50" type="line"/>
      <point x="100" y="50" type="line"/>
      <point x="100" y="100" type="line"/>
      <point x="50" y="100" type="line"/>
      <point x="50" y="700" type="line"/>
      <point x="150" y="700" type="line"/>
      <point x="150" y="150" type="line"/>
      <point x="200" y="150" type="line"/>
      <point x="200" y="100" type="line"/>
      <point x="400" y="100" type="line"/>
      <point x="400" y="150" type="line"/>
      <point x="450" y="150" type="line"/>
      <point x="450" y="700" type="line"/>
      <point x="550" y="700" type="line"/>
      <point x="550" y="100" type="line"/>
      <point x="500" y="100" type="line"/>
      <point x="500" y="50" type="line"/>
      <point x="450" y="50" type="line"/>
      <point x="450" y="0" type="line"/>
      <point x="350" y="0" type="line"/>
      <point x="350" y="-100" type="line"/>
      <point x="450" y="-100" type="line"/>
    </contour>
  </outline>
</glyph>
<glyph name="uni0237" format="2">
  <advance width="500"/>
  <unicode hex="0237"/>
  <anchor x="400" y="600" name="marks_above"/>
  <outline>
    <contour>
      <point x="50" y="-100" type="line"/>
      <point x="50" y="0" type="line"/>
      <point x="150" y="0" type="line"/>
      <point x="150" y="-50" type="line"/>
      <point x="200" y="-50" type="line"/>
      <point x="200" y="-100" type="line"/>
      <point x="300" y="-100" type="line"/>
      <point x="300" y="-50" type="line"/>
      <point x="350" y="-50" type="line"/>
      <point x="350" y="400" type="line"/>
      <point x="250" y="400" type="line"/>
      <point x="250" y="500" type="line"/>
      <point x="450" y="500" type="line"/>
      <point x="450" y="-100" type="line"/>
      <point x="400" y="-100" type="line"/>
      <point x="400" y="-150" type="line"/>
      <point x="350" y="-150" type="line"/>
      <point x="350" y="-200" type="line"/>
      <point x="150" y="-200" type="line"/>
      <point x="150" y="-150" type="line"/>
      <point x="100" y="-150" type="line"/>
      <point x="100" y="-100" type="line"/>
    </contour>
  </outline>
</glyph>
<glyph name="tilde" format="2">
  <advance width="600"/>
  <unicode hex="02DC"/>
  <outline>
    <contour>
      <point x="50" y="600" type="line"/>
      <point x="50" y="700" type="line"/>
      <point x="100" y="700" type="line"/>
      <point x="100" y="750" type="line"/>
      <point x="150" y="750" type="line"/>
      <point x="150" y="800" type="line"/>
      <point x="350" y="800" type="line"/>
      <point x="350" y="700" type="line"/>
      <point x="400" y="700" type="line"/>
      <point x="400" y="750" type="line"/>
      <point x="450" y="750" type="line"/>
      <point x="450" y="800" type="line"/>
      <point x="550" y="800" type="line"/>
      <point x="550" y="700" type="line"/>
      <point x="500" y="700" type="line"/>
      <point x="500" y="650" type="line"/>
      <point x="450" y="650" type="line"/>
      <point x="450" y="600" type="line"/>
      <point x="250" y="600" type="line"/>
      <point x="250" y="700" type="line"/>
      <point x="200" y="700" type="line"/>
      <point x="200" y="650" type="line"/>
      <point x="150" y="650" type="line"/>
      <point x="150" y="600" type="line"/>
    </contour>
  </outline>
</glyph>
<glyph name="uni0307" format="2">
  <advance width="0"/>
  <unicode hex="0307"/>
  <anchor x="0" y="600" name="_above"/>
  <outline>
    <contour>
      <point x="-50" y="600" type="line"/>
      <point x="-50" y="700" type="line"/>
      <point x="50" y="700" type="line"/>
      <point x="50" y="600" type="line"/>
    </contour>
  </outline>
</glyph>
<glyph name="uni0328" format="2">
  <advance width="0"/>
  <unicode hex="0328"/>
  <anchor x="-50" y="0" name="_ogonek"/>
  <outline>
    <contour>
      <point x="-100" y="-200" type="line"/>
      <point x="-100" y="0" type="line"/>
      <point x="0" y="0" type="line"/>
      <point x="0" y="-100" type="line"/>
      <point x="100" y="-100" type="line"/>
      <point x="100" y="-200" type="line"/>
    </contour>
  </outline>
</glyph>
<glyph name="pi" format="2">
  <advance width="600"/>
  <unicode hex="03C0"/>
  <outline>
    <contour>
      <point x="50" y="400" type="line"/>
      <point x="50" y="500" type="line"/>
      <point x="550" y="500" type="line"/>
      <point x="550" y="400" type="line"/>
      <point x="450" y="400" type="line"/>
      <point x="450" y="150" type="line"/>
      <point x="500" y="150" type="line"/>
      <point x="500" y="100" type="line"/>
      <point x="550" y="100" type="line"/>
      <point x="550" y="0" type="line"/>
      <point x="450" y="0" type="line"/>
      <point x="450" y="50" type="line"/>
      <point x="400" y="50" type="line"/>
      <point x="400" y="100" type="line"/>
      <point x="350" y="100" type="line"/>
      <point x="350" y="400" type="line"/>
      <point x="250" y="400" type="line"/>
      <point x="250" y="0" type="line"/>
      <point x="150" y="0" type="line"/>
      <point x="150" y="400" type="line"/>
    </contour>
  </outline>
</glyph>
<glyph name="uni1E9E" format="2">
  <advance width="600"/>
  <unicode hex="1E9E"/>
  <outline>
    <contour>
      <point x="250" y="0" type="line"/>
      <point x="250" y="100" type="line"/>
      <point x="400" y="100" type="line"/>
      <point x="400" y="150" type="line"/>
      <point x="450" y="150" type="line"/>
      <point x="450" y="250" type="line"/>
      <point x="400" y="250" type="line"/>
      <point x="400" y="300" type="line"/>
      <point x="250" y="300" type="line"/>
      <point x="250" y="400" type="line"/>
      <point x="300" y="400" type="line"/>
      <point x="300" y="450" type="line"/>
      <point x="350" y="450" type="line"/>
      <point x="350" y="500" type="line"/>
      <point x="400" y="500" type="line"/>
      <point x="400" y="550" type="line"/>
      <point x="450" y="550" type="line"/>
      <point x="450" y="600" type="line"/>
      <point x="200" y="600" type="line"/>
      <point x="200" y="550" type="line"/>
      <point x="150" y="550" type="line"/>
      <point x="150" y="0" type="line"/>
      <point x="50" y="0" type="line"/>
      <point x="50" y="600" type="line"/>
      <point x="100" y="600" type="line"/>
      <point x="100" y="650" type="line"/>
      <point x="150" y="650" type="line"/>
      <point x="150" y="700" type="line"/>
      <point x="550" y="700" type="line"/>
      <point x="550" y="500" type="line"/>
      <point x="500" y="500" type="line"/>
      <point x="500" y="450" type="line"/>
      <point x="450" y="450" type="line"/>
      <point x="450" y="350" type="line"/>
      <point x="500" y="350" type="line"/>
      <point x="500" y="300" type="line"/>
      <point x="550" y="300" type="line"/>
      <point x="550" y="100" type="line"/>
      <point x="500" y="100" type="line"/>
      <point x="500" y="50" type="line"/>
      <point x="450" y="50" type="line"/>
      <point x="450" y="0" type="line"/>
    </contour>
  </outline>
</glyph>
<glyph name="daggerdbl" format="2">
  <advance width="600"/>
  <unicode hex="2021"/>
  <outline>
    <contour>
      <point x="50" y="200" type="line"/>
      <point x="50" y="300" type="line"/>
      <point x="250" y="300" type="line"/>
      <point x="250" y="400" type="line"/>
      <point x="50" y="400" type="line"/>
      <point x="50" y="500" type="line"/>
      <point x="250" y="500" type="line"/>
      <point x="250" y="700" type="line"/>
      <point x="350" y="700" type="line"/>
      <point x="350" y="500" type="line"/>
      <point x="550" y="500" type="line"/>
      <point x="550" y="400" type="line"/>
      <point x="350" y="400" type="line"/>
      <point x="350" y="300" type="line"/>
      <point x="550" y="300" type="line"/>
      <point x="550" y="200" type="line"/>
      <point x="350" y="200" type="line"/>
      <point x="350" y="0" type="line"/>
      <point x="250" y="0" type="line"/>
      <point x="250" y="200" type="line"/>
    </contour>
  </outline>
</glyph>
<glyph name="bullet" format="2">
  <advance width="300"/>
  <unicode hex="2022"/>
  <outline>
    <contour>
      <point x="250" y="300" type="line"/>
      <point x="50" y="300" type="line"/>
      <point x="50" y="500" type="line"/>
      <point x="250" y="500" type="line"/>
    </contour>
  </outline>
</glyph>
<glyph name="guilsinglleft" format="2">
  <advance width="300"/>
  <unicode hex="2039"/>
  <outline>
    <contour>
      <point x="50" y="300" type="line"/>
      <point x="50" y="400" type="line"/>
      <point x="100" y="400" type="line"/>
      <point x="100" y="450" type="line"/>
      <point x="150" y="450" type="line"/>
      <point x="150" y="500" type="line"/>
      <point x="250" y="500" type="line"/>
      <point x="250" y="400" type="line"/>
      <point x="200" y="400" type="line"/>
      <point x="200" y="300" type="line"/>
      <point x="250" y="300" type="line"/>
      <point x="250" y="200" type="line"/>
      <point x="150" y="200" type="line"/>
      <point x="150" y="250" type="line"/>
      <point x="100" y="250" type="line"/>
      <point x="100" y="300" type="line"/>
    </contour>
  </outline>
</glyph>
<glyph name="uni20BD" format="2">
  <advance width="600"/>
  <unicode hex="20BD"/>
  <outline>
    <contour>
      <point x="50" y="100" type="line"/>
      <point x="50" y="200" type="line"/>
      <point x="150" y="200" type="line"/>
      <point x="150" y="700" type="line"/>
      <point x="450" y="700" type="line"/>
      <point x="450" y="650" type="line"/>
      <point x="500" y="650" type="line"/>
      <point x="500" y="600" type="line"/>
      <point x="550" y="600" type="line"/>
      <point x="550" y="400" type="line"/>
      <point x="500" y="400" type="line"/>
      <point x="500" y="350" type="line"/>
      <point x="450" y="350" type="line"/>
      <point x="450" y="300" type="line"/>
      <point x="250" y="300" type="line"/>
      <point x="250" y="200" type="line"/>
      <point x="350" y="200" type="line"/>
      <point x="350" y="100" type="line"/>
      <point x="250" y="100" type="line"/>
      <point x="250" y="0" type="line"/>
      <point x="150" y="0" type="line"/>
      <point x="150" y="100" type="line"/>
    </contour>
    <contour>
      <point x="250" y="400" type="line"/>
      <point x="400" y="400" type="line"/>
      <point x="400" y="450" type="line"/>
      <point x="450" y="450" type="line"/>
      <point x="450" y="550" type="line"/>
      <point x="400" y="550" type="line"/>
      <point x="400" y="600" type="line"/>
      <point x="250" y="600" type="line"/>
    </contour>
  </outline>
</glyph>
<glyph name="estimated" format="2">
  <advance width="891"/>
  <unicode hex="212E"/>
  <outline>
    <contour>
      <point x="700" y="550" type="line" smooth="yes"/>
      <point x="700" y="570"/>
      <point x="700" y="580"/>
      <point x="680" y="600" type="curve" smooth="yes"/>
      <point x="620" y="660"/>
      <point x="540" y="690"/>
      <point x="450" y="690" type="curve" smooth="yes"/>
      <point x="360" y="690"/>
      <point x="270" y="660"/>
      <point x="210" y="600" type="curve" smooth="yes"/>
      <point x="190" y="580"/>
      <point x="190" y="570"/>
      <point x="190" y="550" type="curve" smooth="yes"/>
      <point x="190" y="370" type="line" smooth="yes"/>
      <point x="190" y="360"/>
      <point x="190" y="360"/>
      <point x="200" y="360" type="curve" smooth="yes"/>
      <point x="690" y="360" type="line" smooth="yes"/>
      <point x="700" y="360"/>
      <point x="700" y="360"/>
      <point x="700" y="370" type="curve" smooth="yes"/>
    </contour>
    <contour>
      <point x="200" y="340" type="line" smooth="yes"/>
      <point x="190" y="340"/>
      <point x="190" y="340"/>
      <point x="190" y="330" type="curve" smooth="yes"/>
      <point x="190" y="150" type="line" smooth="yes"/>
      <point x="190" y="130"/>
      <point x="190" y="120"/>
      <point x="210" y="100" type="curve" smooth="yes"/>
      <point x="270" y="40"/>
      <point x="360" y="10"/>
      <point x="450" y="10" type="curve" smooth="yes"/>
      <point x="560" y="10"/>
      <point x="650" y="60"/>
      <point x="710" y="130" type="curve"/>
      <point x="770" y="130" type="line"/>
      <point x="690" y="40"/>
      <point x="580" y="-20"/>
      <point x="450" y="-20" type="curve" smooth="yes"/>
      <point x="240" y="-20"/>
      <point x="40" y="140"/>
      <point x="40" y="350" type="curve" smooth="yes"/>
      <point x="40" y="560"/>
      <point x="240" y="720"/>
      <point x="450" y="720" type="curve" smooth="yes"/>
      <point x="660" y="720"/>
      <point x="850" y="560"/>
      <point x="850" y="350" type="curve" smooth="yes"/>
      <point x="850" y="340" type="line"/>
    </contour>
  </outline>
</glyph>
<glyph name="infinity" format="2">
  <advance width="600"/>
  <unicode hex="221E"/>
  <outline>
    <contour>
      <point x="450" y="250" type="line"/>
      <point x="450" y="350" type="line"/>
      <point x="350" y="350" type="line"/>
      <point x="350" y="250" type="line"/>
    </contour>
    <contour>
      <point x="550" y="400" type="line"/>
      <point x="550" y="200" type="line"/>
      <point x="500" y="200" type="line"/>
      <point x="500" y="150" type="line"/>
      <point x="450" y="150" type="line"/>
      <point x="450" y="100" type="line"/>
      <point x="350" y="100" type="line"/>
      <point x="350" y="150" type="line"/>
      <point x="250" y="150" type="line"/>
      <point x="250" y="100" type="line"/>
      <point x="150" y="100" type="line"/>
      <point x="150" y="150" type="line"/>
      <point x="100" y="150" type="line"/>
      <point x="100" y="200" type="line"/>
      <point x="50" y="200" type="line"/>
      <point x="50" y="400" type="line"/>
      <point x="100" y="400" type="line"/>
      <point x="100" y="450" type="line"/>
      <point x="150" y="450" type="line"/>
      <point x="150" y="500" type="line"/>
      <point x="250" y="500" type="line"/>
      <point x="250" y="450" type="line"/>
      <point x="350" y="450" type="line"/>
      <point x="350" y="500" type="line"/>
      <point x="450" y="500" type="line"/>
      <point x="450" y="450" type="line"/>
      <point x="500" y="450" type="line"/>
      <point x="500" y="400" type="line"/>
    </contour>
    <contour>
      <point x="250" y="250" type="line"/>
      <point x="250" y="350" type="line"/>
      <point x="150" y="350" type="line"/>
      <point x="150" y="250" type="line"/>
    </contour>
  </outline>
</glyph>
<glyph name="integral" format="2">
  <advance width="600"/>
  <unicode hex="222B"/>
  <outline>
    <contour>
      <point x="50" y="0" type="line"/>
      <point x="50" y="100" type="line"/>
      <point x="150" y="100" type="line"/>
      <point x="150" y="50" type="line"/>
      <point x="250" y="50" type="line"/>
      <point x="250" y="700" type="line"/>
      <point x="300" y="700" type="line"/>
      <point x="300" y="750" type="line"/>
      <point x="350" y="750" type="line"/>
      <point x="350" y="800" type="line"/>
      <point x="450" y="800" type="line"/>
      <point x="450" y="750" type="line"/>
      <point x="500" y="750" type="line"/>
      <point x="500" y="700" type="line"/>
      <point x="550" y="700" type="line"/>
      <point x="550" y="600" type="line"/>
      <point x="450" y="600" type="line"/>
      <point x="450" y="650" type="line"/>
      <point x="350" y="650" type="line"/>
      <point x="350" y="0" type="line"/>
      <point x="300" y="0" type="line"/>
      <point x="300" y="-50" type="line"/>
      <point x="250" y="-50" type="line"/>
      <point x="250" y="-100" type="line"/>
      <point x="150" y="-100" type="line"/>
      <point x="150" y="-50" type="line"/>
      <point x="100" y="-50" type="line"/>
      <point x="100" y="-0" type="line"/>
    </contour>
  </outline>
</glyph>
<glyph name="jacute" format="2">
  <advance width="300"/>
  <outline>
    <contour>
      <point x="-50" y="400" type="line"/>
      <point x="-50" y="500" type="line"/>
      <point x="150" y="500" type="line"/>
      <point x="150" y="-100" type="line"/>
      <point x="50" y="-100" type="line"/>
      <point x="50" y="-200" type="line"/>
      <point x="-150" y="-200" type="line"/>
      <point x="-150" y="-100" type="line"/>
      <point x="50" y="-100" type="line"/>
      <point x="50" y="400" type="line"/>
    </contour>
    <component base="acutecomb" xOffset="100"/>
  </outline>
</glyph>
